<?xml version="1.0" encoding="UTF-8"?>
<svg id="Livello_1" data-name="Livello 1" xmlns="http://www.w3.org/2000/svg" viewBox="0 0 1527.99 157.28">
  <defs>
    <style>
      .cls-1 {
        fill: #fff;
      }
    </style>
  </defs>
  <path class="cls-1" d="M1058.47,157.26c3.3-5.75,5.9-10.74,9-15.41,.9-1.35,3.15-2.14,4.92-2.53,5.69-1.25,11.46-2.08,17.16-3.29,4.79-1.02,5.12-2.42,1.83-6.15-6.4-7.25-13.33-14.11-19.05-21.86-11.28-15.27-19.53-32.02-21.63-51.22-2.54-23.21,5.97-41.57,24.72-55.37,2.04-1.5,3.86-2.53,5.83,.64,4.71,7.55,9.66,14.96,14.81,22.22,1.77,2.49,1.93,4.12,.03,6.6-3.88,5.07-8.15,10.07-10.84,15.76-5.89,12.48-5.6,26.07-2.39,38.9,2.59,10.38,8.23,20.01,12.59,29.94,.55,1.26,1.58,2.32,2.38,3.47l1.26-.13c.68-3.39,1.5-6.76,2.02-10.17,3.56-23.54,15.09-42,35.31-54.89,2.1-1.34,4.52-2.49,6.93-2.91,1.61-.28,4.23,.35,5.11,1.53,4.61,6.17,8.81,12.64,13.66,19.76-2.35,.54-3.83,1.03-5.34,1.21-21.94,2.6-40.85,22.98-42.81,45.8-.13,1.53,.47,3.12,.73,4.68,1.49-.38,3.19-.43,4.43-1.21,12.89-8.09,25.89-16.03,38.44-24.63,3.74-2.56,6.83-6.68,9.06-10.72,8.25-15.01,21.52-21.47,37.74-17.51,7.48,1.83,12.94,6.48,16.9,13.01,1.68,2.76,1.43,4.62-1.38,6.71-5.38,3.99-10.44,8.4-15.55,12.75-1.52,1.29-2.72,2.95-4.49,4.9,4.65,2.57,8.79,2.5,12.32,0,6.55-4.64,12.83-9.69,19.06-14.76,12.83-10.44,25.52-21.05,38.37-31.48,4.29-3.48,6.47-3.3,9.99,1.38,3.64,4.85,6.78,10.1,9.87,15.33,2.64,4.46,3.24,5.01,7.5,2.04,8.18-5.7,16.29-11.52,24.03-17.78,4.67-3.77,8-9.38,12.98-12.53,9.81-6.2,20.97-8.71,32.63-6.85,8.95,1.42,15.56,6.43,19.77,14.55,2.67,5.15,3.64,5.21,8.59,2.19,8.06-4.92,15.37-10.5,21.5-17.9,5.73-6.9,12.9-13.18,22.54-13.08,6.83,.07,13.71,2.14,20.44,3.81,3.04,.75,5.49,2.19,7.58-1.58,.6-1.07,2.79-1.71,4.28-1.77,5.07-.2,10.16-.03,15.24-.07,2.79-.02,3.73,1.16,3.11,3.91-.95,4.21-1.8,8.44-2.51,12.69-1.29,7.71,3.89,12.53,11.5,10.38,3.67-1.04,6.54-.27,9.78,1.33,2.99,1.47,6.39,2.54,9.69,2.82,6.15,.52,8.12,1.84,9.88,8.84-5.06,1.05-10.1,2.17-15.16,3.13-37.57,7.15-75.14,14.28-112.72,21.38-19.23,3.63-38.46,7.2-57.7,10.78-4.54,.84-8.21,2.19-8.54,7.92-.09,1.48-2.77,3.45-4.64,4.05-4.24,1.37-8.71,2.05-13.09,2.99-3.01,.65-3.17-1.19-3.02-3.39,.4-6.08,.35-6.12-5.63-4.98-49.32,9.34-98.63,18.68-147.95,28.02-31.7,6.01-63.4,12.04-95.1,18.03-1.72,.33-3.48,.44-5.97,.74v-.02Zm73.14-29.92c1.49,.69,1.92,1.09,2.27,1.03,12.47-2.13,24.96-4.2,37.39-6.53,2.8-.52,3-2.68,1.29-4.74-1.61-1.94-3.75-3.5-5.1-5.59-2.69-4.18-5.85-3.91-9.51-1.65-6.83,4.23-13.69,8.42-20.47,12.74-1.92,1.22-3.57,2.86-5.89,4.74h.02Zm253.45-43.67c10.93-1.9,21.87-3.79,34.09-5.91-2.8-3.54-4.55-5.67-6.22-7.86-3.84-5.02-8.45-5.91-13.84-2.66-1.65,1-3.17,2.21-4.8,3.26-4.42,2.86-8.38,6.09-9.24,13.17h.01Zm-66.04-.21c.04-3.64-1.8-5.03-4.25-3.51-8.19,5.07-16.18,10.48-24.12,15.94-.84,.58-.87,2.32-1.27,3.53,1.19,.34,2.45,1.11,3.56,.94,6.62-1.05,13.24-2.18,19.79-3.61,1.49-.33,3.44-1.67,3.9-2.98,1.21-3.48,1.71-7.2,2.38-10.3h0Zm-90.21,25.39l.85,1.51c6.72,.82,13.07-1.26,19.41-3.09,.7-.2,1.54-2,1.35-2.83-.87-3.79,1.21-5.46,4.22-6.78,1.35-.59,2.78-1.27,3.79-2.3,2.59-2.63,1.45-5.68-.14-8.13-.38-.58-3.8,.02-5.18,.99-4.14,2.89-8.06,6.12-11.89,9.41-4.23,3.63-8.27,7.47-12.4,11.22h0Zm125.44-31.2c4.91-.06,8.92-3.78,8.86-8.2-.08-5.32-5.84-10.7-11.36-10.61-4.79,.08-7.62,3.29-7.57,8.58,.06,5.97,4.33,10.31,10.08,10.24h-.01Zm92.51-21.62c-.08-5.69-4.05-9.76-9.4-9.64-4.26,.1-7.1,3.31-7.07,8.01,.03,5.39,3.83,8.95,9.49,8.89,4.63-.05,7.04-2.56,6.97-7.27h.01Zm-250.76,33.32c-5.77-.14-10.9,3.7-11.81,8.41-.27,1.41,.03,3.58,.96,4.37,.77,.66,3.17,.29,4.28-.46,2.81-1.9,5.41-4.16,7.85-6.52,.94-.91,2.04-2.85,1.65-3.66-.56-1.19-2.39-1.78-2.94-2.14h.01Zm269.5-18.91c1.9-1.61,3.33-2.83,4.77-4.05-1.18-.91-2.81-2.81-3.45-2.53-1.51,.67-2.64,2.33-3.67,3.77-.14,.2,1.18,1.43,2.36,2.81h-.01Zm-119.68,20.81c.29-.93,.58-1.87,.87-2.8-2.25-.76-4.5-1.52-6.75-2.28-.26,1.05-.85,2.98-.72,3.03,2.15,.82,4.39,1.41,6.61,2.05h-.01Z"/>
  <path class="cls-1" d="M756.77,129.72c-4.8,.67-9.6,1.42-14.41,2-6.89,.84-12.76,3.68-18.15,8.03-1.98,1.6-5.56,3.28-7.36,2.5-1.91-.83-3.16-4.41-3.63-6.99-.74-4.06-.49-8.28-.86-12.42-.21-2.34-1.41-4.17-4.14-3.33-12.67,3.89-25.44,7.5-37.86,12.06-4.09,1.5-7.55,5.26-10.7,8.55-1.97,2.06-3.58,3.86-6.62,3.61-.43-.04-.88,.14-1.31,.25-2.08,.53-5.32,2.14-6,1.41-1.9-2.05-3.41-4.96-3.88-7.73-3.35-19.78-6.42-39.61-9.56-59.43-.95-6.02-1.84-12.05-2.74-18.08-.5-3.36-2.25-3.95-5.41-3.02-9.57,2.83-19.25,5.29-28.78,8.23-1.59,.49-3.64,2.57-3.78,4.07-.55,6.05-.53,12.15-.53,18.24,0,2.49,1.6,3.16,4,2.82,6.65-.94,13.32-1.72,19.98-2.56,1.18-.15,2.45-.56,3.54-.31,1.59,.37,3.07,1.24,4.59,1.89-.82,1.32-1.33,3.3-2.51,3.84-7.42,3.39-14.83,6.94-22.56,9.49-7.04,2.33-7.22,1.8-7.22,9.1v11.11c12.13-.57,24.41-5.37,34.68,5.03-1.49,.12-2.98,.28-4.48,.36-5.51,.27-11.06,.14-16.51,.87-6.52,.88-12.01,4.08-16.78,8.73-1.51,1.47-4.5,2.83-6.18,2.3-1.65-.52-2.85-3.41-3.61-5.49-.63-1.74-.45-3.82-.42-5.74,.28-18.87,.7-37.74,.82-56.62,.02-2.46-.94-5.21-2.25-7.34-2.47-4.01-1.99-7.7,2.57-9.37,4.87-1.78,10.04-2.83,15.14-3.86,7.61-1.53,15.33-2.54,22.89-4.24,3.09-.7,5.82-2.84,8.86-3.94,1.96-.71,4.33-1.38,6.24-.93,11.91,2.83,23.66,6.34,35.62,8.92,9.46,2.04,19.14,3.11,28.73,4.51,3.13,.46,5.27-.55,6.52-3.91,1.54-4.16,4.96-6.16,9.54-5.94,12.52,.62,25.04,1.17,37.55,1.87,4.34,.24,7.61-.38,9.64-5.12,1.69-3.95,6.23-3.81,9.9-3.61,11.77,.64,23.54,1.3,35.26,2.54,9.19,.97,18.29,2.78,27.41,4.32,1.74,.29,3.5,.9,5.09,1.67,3.98,1.94,4.58,4.14,2.05,7.82-6.67,9.71-15.54,17.19-24.97,24.08-1.32,.97-2.85,1.7-4.04,2.8-.9,.83-1.43,2.08-2.12,3.14,1.13,.52,2.21,1.22,3.39,1.53,4.45,1.18,9.12,1.77,13.36,3.45,7.66,3.04,12.6,8.84,14.72,16.84,3.18,11.96,2.53,24.18,2.39,36.36,0,.66-.46,1.32-1.87,2.29-.6-1.58-1.52-3.12-1.74-4.75-1.15-8.38-1.52-16.91-3.27-25.15-3.96-18.62-7.48-20.57-26.4-21.87-4.42-.31-8.92,.59-13.38,.87-3.6,.23-5.08,1.9-5.32,5.65-.66,10.51-1.58,21.02-2.78,31.49-.44,3.79-1.2,7.85-5.78,11.25-.48-2.86-.99-4.76-1.08-6.67-1.14-23.83-4.46-47.33-10.8-70.36-.32-1.15-.63-2.3-1.04-3.41-1.99-5.46-3.56-6.1-9.1-4.68-8.95,2.29-17.94,4.44-26.96,6.45-3.39,.76-5.46,2.17-5.19,5.93,.31,4.14,.54,8.29,.76,12.44,.15,2.75,1.63,3.87,4.32,4.02,2.53,.14,5.1,.38,7.54,.99,2.61,.66,5.09,1.82,7.63,2.76,.05,.64,.11,1.27,.16,1.91-3.5,1.68-6.92,3.53-10.5,5.01-8.99,3.72-9.02,3.65-9.02,13.34,0,2.97,.09,5.95,0,8.92-.08,3.05,1.09,3.76,4.28,3.9,7.26,.32,14.48,1.44,21.7,2.36,1.03,.13,1.97,.92,2.95,1.41-.07,.51-.13,1.03-.2,1.54h-.02Zm-94.59-37.14c2.13,.78,2.78,1.16,3.47,1.25,15.28,1.96,28.95,7.8,41.4,16.75,3.3,2.37,5,1.49,4.94-2.62-.18-12.45-.52-24.91-1.07-37.35-.1-2.33-1.43-4.61-2.19-6.91-1.97,1.18-3.95,2.35-5.9,3.55-.89,.55-1.7,1.21-2.59,1.75-9.92,6.04-19.86,12.05-29.77,18.11-2.48,1.52-4.86,3.2-8.28,5.47h0Zm39.53,22.96c.03-.57,.06-1.14,.09-1.71-1.39-.94-2.72-2.01-4.19-2.81-13.44-7.22-27.85-9.03-42.86-7.56-3.55,.35-4.29,2.13-3.9,5.45,.83,7.2,1.25,14.44,1.86,21.67,.11,1.34,.32,2.67,.66,5.38,13.76-14.23,31.67-15.85,48.34-20.42Zm-18.62-45.8c-.72-.87-.94-1.43-1.28-1.5-12.67-2.75-25.34-5.49-38.05-8.03-.53-.11-2.24,1.94-2.09,2.75,1.31,7.01,2.9,13.96,4.46,20.92,.63,2.8,2.17,3.63,4.92,2.28,9.5-4.67,19.06-9.23,28.57-13.89,1.15-.57,2.11-1.53,3.47-2.53h0Zm116.1-10.32c0,.11-.01,.22-.02,.33h-10.71c-2.97,0-3.9,1.33-3.25,4.25,1.16,5.19,2.13,10.42,3.08,15.66,.53,2.94,2.19,3.8,4.79,2.67,9.49-4.13,18.2-9.45,25.21-17.19,.72-.79,1.43-2.26,1.15-3.08-.25-.73-1.85-1.32-2.9-1.41-5.77-.5-11.55-.83-17.33-1.22h-.02Z"/>
  <path class="cls-1" d="M127.76,119.52c-.49-6.34-1.09-13.26-1.56-20.18-.83-12.14-1.64-24.29-2.28-36.44-.1-1.84,.28-4.13,1.35-5.49,1.1-1.4,3.31-2.57,5.07-2.63,1.16-.04,3.14,1.9,3.45,3.25,1.27,5.49,2.32,11.06,2.93,16.66,1.79,16.39,3.45,32.79,4.93,49.21,.69,7.67-1.83,9.49-9.47,8.3-6.18-.96-12.46-1.23-18.66-2.05-6.66-.89-11.91,1.79-16.72,5.9-1.13,.97-2.3,1.9-3.51,2.77-4.2,3.01-8.21,1.79-9.53-3.21-.82-3.13-1.29-6.46-1.22-9.68,.41-18.56,.99-37.12,1.61-55.67,.11-3.35-.68-5.31-4.54-4.34-5.21,1.31-10.41,2.65-15.64,3.92-3.4,.83-4.28,2.74-2.97,5.94,3.33,8.12,6.68,16.23,9.82,24.43,3.62,9.46,6.97,19,6.24,29.43-.44,6.37-3.1,8.66-9.28,7.14-2.88-.71-5.64-1.93-8.46-2.89-11.91-4.05-23.92-6.46-36.42-2.59-1.2,.37-2.72-.28-4.1-.46,.57-1.4,.75-3.59,1.76-4.07,4.23-2.03,8.59-4.1,13.13-5.1,4.61-1.01,9.49-.83,14.25-1.08,4.74-.24,5.37-.97,3.94-5.37-3.66-11.32-7.34-22.63-11.08-33.92-1.76-5.32-2.99-5.95-8.57-5.4-6.23,.62-12.48,1.5-18.71,1.43-3.24-.04-6.66-1.48-9.64-2.99-3.2-1.63-4.26-4.85-3.76-8.41,.5-3.59,2.85-5.54,6.24-6.08,13.26-2.14,26.58-3.88,39.79-6.31,14.93-2.74,29.4,1.7,44.12,2.02,3.04,.07,4.49,1.86,4.67,4.88,.54,8.89,1.28,17.77,1.71,26.66,.46,9.49,.68,19,.95,28.5,.07,2.51,1.08,3.94,3.73,3.94h26.41l.02-.02Z"/>
  <path class="cls-1" d="M507.02,90.47c2.14,1.41,3.47,2.53,5,3.24,7.43,3.48,14.97,6.74,22.36,10.31,2.94,1.42,5.77,3.19,8.33,5.2,4.21,3.32,3.95,6.92-.72,9.52-3.37,1.88-7.05,3.22-10.57,4.84-12.59,5.82-25.09,11.82-37.77,17.43-7.88,3.49-12.66,2.95-14.17-6.06-2.19-13.04-4.18-26.11-5.89-39.22-.94-7.2-1.48-14.5-1.59-21.76-.1-6.66,.85-13.32,.89-19.99,.02-3.88-.8-7.77-1.37-11.64-.17-1.15-1.24-2.31-1.09-3.34,.38-2.6,.48-5.81,2.06-7.52,2.25-2.44,5.5-1.06,7.52,1.17,10.66,11.82,25.4,14.95,39.82,18.83,7.35,1.98,14.69,4.03,21.99,6.18,5.72,1.68,7.4,.68,7.95-5.12,.08-.89,.1-1.79,.29-2.66,.72-3.27,2.21-6.18,5.95-6.26,3.93-.09,4.73,3.22,5.09,6.21,1.03,8.55,2.3,17.11,2.65,25.69,.67,16.63,.91,33.27,1.03,49.92,.05,6.47-1.43,12.8-5.6,18-1.18,1.47-3.58,1.97-5.42,2.92-.99-2-2.73-3.95-2.86-6-1.19-19.38-2.07-38.78-3.14-58.17-.17-3.03-1.45-5.33-5.17-4.18-10.41,3.23-20.81,6.48-31.19,9.82-1.31,.42-2.42,1.44-4.35,2.63h-.03Zm-15.73,44.98c6.21-2.71,11.11-4.81,15.98-6.99,7.61-3.4,15.22-6.77,22.76-10.33,1.17-.55,1.91-2.02,2.86-3.06-1-.77-1.89-1.89-3.02-2.27-10.71-3.62-21.43-7.25-32.24-10.58-4.25-1.31-5.85-.06-6.11,4.39-.31,5.32-.18,10.67-.21,16-.02,3.93,0,7.87,0,12.84h-.02Zm31.64-64.43c-1.47-1.05-1.89-1.52-2.41-1.69-10.51-3.33-21.03-6.62-31.55-9.91-2.77-.87-4.21,.41-3.89,3.04,.66,5.43,1.67,10.83,2.49,16.24,.56,3.72,2.39,3.95,5.67,2.75,8.24-3.03,16.62-5.65,24.93-8.47,1.34-.45,2.62-1.07,4.75-1.96h0Z"/>
  <path class="cls-1" d="M237.26,63.99c-3.34,2.18-5.51,3.67-7.75,5.04-6.73,4.13-13.35,8.48-20.31,12.17-2.59,1.37-6.04,1.64-9.06,1.5-1.63-.08-4.06-1.81-4.51-3.28-.53-1.73,.48-4.09,1.28-5.99,.4-.94,1.78-1.53,2.8-2.13,14.86-8.76,28.34-19.24,40.52-31.44,5.57-5.57,7.32-5.81,13.29-.87,8.71,7.21,16.98,14.96,25.56,22.33,1.69,1.45,3.97,2.23,5.98,3.32,.91-2.22,2.16-4.38,2.64-6.69,.51-2.44-.18-5.17,.53-7.51,.58-1.92,2.44-3.45,3.74-5.15,1.41,1.51,3.55,2.81,4.09,4.58,1.1,3.66,1.82,7.56,1.88,11.38,.33,20.47,.41,40.95,.55,61.43,0,.88,.04,2.02-.46,2.59-1.38,1.58-3.03,2.93-4.57,4.38-1.16-1.54-3.05-2.95-3.35-4.64-1.02-5.69-1.68-11.47-2.12-17.24-.76-9.92-1.38-19.85-1.79-29.79-.14-3.29-1.17-5.31-4.49-6.16-9.44-2.42-17.57-7.32-25.17-13.26-1.17-.92-2.88-1.15-4.35-1.7-.41,1.5-1.17,3.01-1.18,4.51-.07,19.78,.03,39.56-.09,59.34-.02,3.38-.48,6.86-1.44,10.09-.43,1.46-2.58,2.41-3.95,3.59-1.16-1.34-3.13-2.56-3.35-4.03-1.7-11.46-3.47-22.94-4.4-34.47-.69-8.54-.14-17.17-.17-25.76,0-1.57-.17-3.14-.35-6.13h0Z"/>
  <path class="cls-1" d="M953.1,101.49c-1.45,.93-2.86,1.54-3.88,2.55-6.45,6.39-12.81,12.87-19.2,19.32-3.05,3.08-6.07,3.14-9.04,.19-7.16-7.11-7.11-7.06,0-14.28,6.06-6.16,11.92-12.51,18.01-18.63,2.08-2.09,1.98-3.54-.07-5.53-6.52-6.34-12.99-12.74-19.34-19.25-5.42-5.56-2.91-13.78,4.79-15.63,.94-.22,2.44,.79,3.32,1.61,6.54,6.09,12.98,12.29,19.46,18.44,5.22,4.95,7.1,4.93,12.3-.2,6.05-5.97,12.13-11.91,18.05-18,2.23-2.29,3.9-2.87,6.76-.67,9.26,7.12,9.41,7.65,1.2,15.88-5.79,5.81-11.52,11.68-17.46,17.33-2.51,2.39-2.67,4.01-.07,6.5,7.43,7.11,14.57,14.52,21.96,21.69,2.28,2.21,2.55,3.79,.18,6.25-8.34,8.66-8.22,8.69-16.92,.22-5.44-5.3-11.01-10.46-16.59-15.62-.94-.87-2.2-1.38-3.48-2.17h.02Z"/>
  <path class="cls-1" d="M363.81,112.98c-.18-2.26-.54-4.53-.51-6.79,.22-17.09,.39-34.18,.92-51.27,.09-2.77,1.92-5.49,2.95-8.24,.7,.04,1.4,.09,2.09,.13,.59,2.11,1.54,4.19,1.72,6.34,.76,8.88,1.15,17.78,1.92,26.66,1.22,14.21,2.71,28.39,3.93,42.6,.43,5.02,.74,10.11,.47,15.13-.13,2.36-1.78,4.64-2.74,6.95-2.27-1.02-5.17-1.48-6.7-3.17-7.99-8.83-15.69-17.92-23.37-27.02-5.19-6.15-10.16-12.47-15.27-18.68-.7-.85-1.63-1.52-3.42-3.16,0,4.32-.01,7.45,0,10.58,.05,8.31,.33,16.64,0,24.93-.08,2.07-2.11,4.06-3.25,6.09-1.33-1.8-3.45-3.45-3.86-5.44-2.17-10.47-4.46-20.97-5.64-31.58-1.08-9.68-1.06-19.52-.92-29.28,.03-2.28,2.33-6.21,3.93-6.39,2.36-.27,5.77,1.53,7.42,3.53,5.69,6.88,10.7,14.3,16.16,21.38,6,7.78,12.16,15.44,18.34,23.09,1.26,1.56,2.91,2.81,4.39,4.2,.48-.2,.97-.39,1.45-.59h-.01Z"/>
  <path class="cls-1" d="M167.95,89.38c8.46,1.32,15.4,2.2,22.25,3.54,6.88,1.35,13.69,3.09,20.47,4.85,2.13,.56,4.23,1.55,6.11,2.72,5.27,3.29,4.99,8.09-.58,10.89-8.8,4.42-17.71,8.62-26.42,13.21-4.21,2.22-8.04,5.13-12.07,7.68-1.31,.83-2.72,1.51-4.31,2.37-1.8-3.7-.14-6.13,1.96-7.89,6.15-5.15,12.52-10.02,18.83-14.98,.89-.7,1.88-1.27,2.78-3.02-3.86-.59-7.7-1.3-11.58-1.74-8.75-.99-17.52-1.77-26.26-2.79-2.35-.27-4.71-.9-6.96-1.66-10.33-3.47-13.07-13.82-5.32-21.44,4.1-4.03,8.92-7.47,13.82-10.54,12.39-7.76,25-15.17,37.54-22.7,1.15-.69,2.32-1.57,3.58-1.79,1.76-.3,4.68-.72,5.2,.1,1.02,1.62,1.71,4.72,.81,6.04-3.05,4.49-6.39,9.01-10.47,12.54-8,6.91-16.6,13.13-24.88,19.72-1.41,1.12-2.48,2.66-4.51,4.89h.01Z"/>
</svg>